<!DOCTYPE svg PUBLIC "-//W3C//DTD SVG 20010904//EN" "http://www.w3.org/TR/2001/REC-SVG-20010904/DTD/svg10.dtd">
<svg version="1.0" xmlns="http://www.w3.org/2000/svg" width="492px" height="564px" viewBox="0 0 4920 5640" preserveAspectRatio="xMidYMid meet">
<g id="layer101" fill="#000000" stroke="none">
<path d="M1222 4927 l-1222 -702 2 -1408 3 -1408 1220 -699 c671 -385 1227 -699 1235 -699 8 0 564 314 1235 699 l1220 699 3 1408 2 1408 -1222 700 c-672 385 -1229 701 -1238 702 -8 2 -565 -313 -1238 -700z m2456 -271 l992 -569 0 -1190 c0 -1128 -1 -1189 -17 -1182 -10 3 -239 132 -510 286 -270 153 -495 279 -500 279 -8 -1 -126 -201 -121 -205 2 -1 228 -129 503 -285 275 -155 506 -288 512 -294 10 -9 -228 -149 -1032 -610 -575 -329 -1049 -596 -1054 -594 -23 8 -2070 1184 -2071 1189 0 3 143 88 318 189 174 101 403 234 509 295 l191 111 -59 102 c-33 56 -64 102 -68 102 -5 0 -235 -131 -511 -290 -276 -160 -503 -290 -506 -290 -2 0 -4 537 -4 1193 l0 1192 1030 590 c567 325 1037 591 1045 593 13 3 15 -66 15 -517 l0 -521 125 0 125 0 0 525 0 525 48 -27 c26 -16 494 -284 1040 -597z"/>
<path d="M1668 3873 c-11 -3 -18 -14 -18 -28 0 -22 2 -23 32 -14 61 17 134 11 162 -13 14 -13 26 -30 27 -38 6 -54 -17 -79 -101 -110 -68 -26 -109 -64 -116 -111 -13 -78 41 -129 137 -129 77 0 118 15 112 41 -4 14 -11 18 -22 14 -9 -4 -42 -9 -73 -12 -75 -7 -108 12 -108 63 0 25 7 42 26 59 15 14 31 25 37 25 5 0 37 13 71 30 67 32 86 57 86 114 0 41 -32 84 -76 102 -31 13 -138 17 -176 7z"/>
<path d="M2030 3655 c0 -217 1 -225 20 -225 18 0 20 8 22 98 l3 97 118 3 117 3 0 -101 0 -100 25 0 25 0 0 225 0 225 -25 0 -25 0 0 -105 0 -105 -120 0 -120 0 0 105 c0 98 -1 105 -20 105 -19 0 -20 -7 -20 -225z"/>
<path d="M2575 3866 c-143 -62 -153 -345 -15 -416 59 -30 160 -28 216 5 131 77 119 343 -19 406 -49 22 -138 24 -182 5z m172 -46 c50 -30 68 -73 68 -165 0 -131 -46 -185 -157 -185 -49 0 -62 4 -91 30 -43 37 -62 99 -54 179 9 109 59 161 152 161 32 0 62 -7 82 -20z"/>
<path d="M2990 3654 l0 -227 95 6 c136 8 175 36 175 128 0 84 -53 128 -167 137 l-63 5 0 88 c0 82 -2 89 -20 89 -19 0 -20 -7 -20 -226z m175 -8 c26 -11 36 -24 45 -54 24 -77 -27 -122 -137 -122 l-43 0 0 95 0 95 50 0 c28 0 66 -6 85 -14z"/>
<path d="M2387 2106 c-49 -18 -83 -50 -109 -100 -28 -55 -28 -177 1 -233 46 -92 141 -131 246 -102 155 43 183 331 40 414 -53 32 -127 40 -178 21z m153 -54 c43 -31 65 -89 65 -167 0 -77 -19 -122 -66 -157 -66 -50 -180 -24 -214 48 -21 44 -31 126 -21 178 8 43 49 94 91 112 38 18 111 10 145 -14z"/>
<path d="M2020 1910 l0 -200 -70 0 c-63 0 -70 -2 -70 -20 0 -19 7 -20 165 -20 158 0 165 1 165 20 0 18 -7 20 -70 20 l-70 0 0 200 0 200 -25 0 -25 0 0 -200z"/>
<path d="M2770 1890 l0 -220 83 0 c91 0 157 23 177 60 6 12 12 41 13 65 3 83 -62 135 -170 135 l-63 0 0 90 c0 83 -1 90 -20 90 -19 0 -20 -7 -20 -220z m188 -17 c86 -64 34 -163 -85 -163 l-53 0 0 96 0 96 55 -4 c34 -3 66 -13 83 -25z"/>
</g>
<g id="layer102" fill="#f60007" stroke="none">
<path d="M1974 3180 c-63 -9 -147 -47 -192 -86 l-32 -29 34 -40 33 -39 35 26 c109 84 240 86 319 7 59 -59 64 -138 12 -200 -37 -44 -78 -61 -162 -68 -72 -6 -75 -7 -87 -37 -12 -30 -11 -32 68 -125 44 -52 100 -114 124 -139 24 -25 44 -48 44 -51 0 -4 -86 -4 -191 -1 l-190 5 3 -54 3 -54 263 -3 262 -2 0 41 c0 38 -8 50 -108 162 -149 170 -141 155 -95 163 94 17 179 82 209 160 20 54 15 153 -11 204 -39 78 -122 142 -200 155 -75 12 -90 13 -141 5z"/>
<path d="M2420 2746 l0 -446 188 0 c200 0 264 10 351 53 147 73 230 262 203 459 -26 179 -122 298 -282 349 -53 17 -100 22 -262 26 l-198 6 0 -447z m447 305 c112 -50 173 -158 173 -305 0 -239 -118 -346 -382 -346 l-108 0 0 341 0 341 133 -4 c111 -3 140 -7 184 -27z"/>
</g>


</svg>